<svg width="1024" height="1024" viewBox="0 0 1024 1024" fill="none" xmlns="http://www.w3.org/2000/svg">
<path d="M404.026 727.356C404.021 727.556 404.004 727.754 404.003 727.954C403.562 778.058 451.334 818.371 510.704 817.997C570.073 817.623 618.559 776.702 619 726.598C619.001 726.398 618.987 726.2 618.987 726L404.026 727.356Z" fill="#977D00" style="fill:#977D00;fill:color(display-p3 0.5909 0.4920 0.0000);fill-opacity:1;"/>
<path d="M800.659 703.95L719.662 585.16C719.936 548.611 720.603 459.303 720.776 436.2C721.526 335.742 650.072 252.539 554.587 234.377L554.93 188.507C555.096 166.084 536.917 148.041 514.324 148.208C491.731 148.376 473.281 166.691 473.114 189.114L472.771 234.986C377.004 254.568 304.297 338.84 303.546 439.297C303.252 478.623 302.603 565.462 302.433 588.256L219.651 708.261C210.931 720.901 209.897 737.187 216.964 750.583C224.031 763.977 238.039 772.284 253.368 772.17L765.982 768.367C781.311 768.254 795.445 759.736 802.712 746.238C809.982 732.734 809.19 716.462 800.659 703.95Z" fill="#977D00" style="fill:#977D00;fill:color(display-p3 0.5909 0.4920 0.0000);fill-opacity:1;"/>
</svg>
