<svg width="1024" height="1024" viewBox="0 0 1024 1024" fill="none" xmlns="http://www.w3.org/2000/svg">
<path d="M424.021 701.12C424.017 701.286 424.004 701.449 424.002 701.614C423.65 743.004 461.868 776.307 509.363 775.998C556.859 775.688 595.647 741.884 596 700.494C596.001 700.329 595.99 700.165 595.99 700L424.021 701.12Z" fill="#BF9F00" style="fill:#BF9F00;fill:color(display-p3 0.7502 0.6246 0.0000);fill-opacity:1;"/>
<path d="M752.549 680.958L685.052 581.967C685.28 551.509 685.836 477.086 685.98 457.833C686.605 374.118 627.06 304.782 547.489 289.648L547.775 251.422C547.913 232.737 532.764 217.7 513.937 217.84C495.109 217.98 479.734 233.243 479.595 251.928L479.309 290.155C399.503 306.473 338.914 376.7 338.289 460.414C338.044 493.186 337.503 565.552 337.361 584.547L268.376 684.551C261.109 695.084 260.248 708.656 266.137 719.819C272.026 730.981 283.699 737.903 296.473 737.808L723.652 734.639C736.426 734.545 748.204 727.447 754.26 716.198C760.318 704.945 759.658 691.385 752.549 680.958Z" fill="#BF9F00" style="fill:#BF9F00;fill:color(display-p3 0.7502 0.6246 0.0000);fill-opacity:1;"/>
</svg>
