<svg width="1024" height="1024" viewBox="0 0 1024 1024" fill="none" xmlns="http://www.w3.org/2000/svg">
<path d="M426.02 669.106C426.017 669.269 426.004 669.43 426.002 669.593C425.654 710.439 463.427 743.303 510.371 742.998C557.314 742.692 595.651 709.333 596 668.487C596.001 668.324 595.99 668.163 595.99 668L426.02 669.106Z" fill="#E4BE00" style="fill:#E4BE00;fill:color(display-p3 0.8951 0.7453 0.0000);fill-opacity:1;"/>
<path d="M704.439 656.966L650.442 577.774C650.624 553.407 651.069 493.869 651.184 478.466C651.684 411.494 604.048 356.026 540.391 343.918L540.62 313.338C540.73 298.389 528.611 286.36 513.55 286.472C498.487 286.584 486.187 298.794 486.076 313.742L485.847 344.324C422.002 357.378 373.531 413.56 373.031 480.531C372.835 506.749 372.402 564.642 372.289 579.838L317.101 659.841C311.288 668.267 310.598 679.125 315.31 688.055C320.021 696.985 329.359 702.522 339.578 702.446L681.322 699.911C691.541 699.836 700.963 694.158 705.808 685.158C710.654 676.156 710.126 665.308 704.439 656.966Z" fill="#E4BE00" style="fill:#E4BE00;fill:color(display-p3 0.8951 0.7453 0.0000);fill-opacity:1;"/>
</svg>
