<svg width="1024" height="1024" viewBox="0 0 1024 1024" fill="none" xmlns="http://www.w3.org/2000/svg">
<path d="M438.017 642.002C438.014 642.15 438.003 642.296 438.002 642.444C437.705 679.478 469.923 709.274 509.963 708.998C550.003 708.721 582.703 678.475 583 641.442C583.001 641.294 582.991 641.148 582.991 641L438.017 642.002Z" fill="#FFD400" style="fill:#FFD400;fill:color(display-p3 0.9986 0.8315 0.0000);fill-opacity:1;"/>
<path d="M656.329 630.975L615.831 571.58C615.968 553.305 616.302 508.652 616.388 497.1C616.763 446.871 581.036 405.269 533.293 396.189L533.465 373.253C533.548 362.042 524.458 353.02 513.162 353.104C501.865 353.188 492.64 362.345 492.557 373.557L492.385 396.493C444.502 406.284 408.149 448.42 407.773 498.648C407.626 518.312 407.302 561.731 407.216 573.128L365.826 633.131C361.466 639.45 360.949 647.594 364.482 654.291C368.016 660.989 375.019 665.142 382.684 665.085L638.991 663.183C646.656 663.127 653.722 658.868 657.356 652.119C660.991 645.367 660.595 637.231 656.329 630.975Z" fill="#FFD400" style="fill:#FFD400;fill:color(display-p3 0.9986 0.8315 0.0000);fill-opacity:1;"/>
</svg>
